<svg xmlns="http://www.w3.org/2000/svg" viewBox="0 0 35 35">
  <title>adaptive-days-wakeup</title>
  <path d="M9.16,6.82,6.93,9.07,4.1,6.22,6.33,4ZM4.77,15.89v3.22H0V15.89ZM19.06,0V4.72H15.94V0ZM30.9,6.22,28.07,9.07,25.84,6.82,28.67,4ZM25.84,28.1l2.23-2.17,2.83,2.85L28.67,31Zm4.39-12.21H35v3.22H30.23Zm-12.73-8a9.17,9.17,0,0,1,6.74,2.81A9.26,9.26,0,0,1,27,17.46a9.3,9.3,0,0,1-2.79,6.79,9.17,9.17,0,0,1-6.74,2.81,9.17,9.17,0,0,1-6.74-2.81A9.3,9.3,0,0,1,8,17.46a9.26,9.26,0,0,1,2.79-6.78A9.17,9.17,0,0,1,17.5,7.87ZM15.94,35V30.28h3.12V35ZM4.1,28.78l2.83-2.92L9.16,28.1,6.33,31Z"/>
</svg>
