<svg xmlns="http://www.w3.org/2000/svg" viewBox="0 0 35 35">
  <title>adaptive-days-recover</title>
  <path d="M29.61,5.41a16.37,16.37,0,0,0-12-5,16.37,16.37,0,0,0-12,5,17.43,17.43,0,0,0-3.09,4.2l-2.37-1,1.33,9.88,7.9-6.08-2.2-.91a12.24,12.24,0,0,1,2-2.58,11.36,11.36,0,0,1,8.45-3.53,11.36,11.36,0,0,1,8.45,3.53,11.54,11.54,0,0,1,3.51,8.52A11.58,11.58,0,0,1,26.06,26a11.39,11.39,0,0,1-8.45,3.52A11.39,11.39,0,0,1,9.16,26a12.22,12.22,0,0,1-2.41-3.38L2.23,24.75a17.14,17.14,0,0,0,3.38,4.76,16.37,16.37,0,0,0,12,5,16.37,16.37,0,0,0,12-5,16.55,16.55,0,0,0,5-12A16.57,16.57,0,0,0,29.61,5.41Z"/>
  <path d="M23.63,23.23l-3.28-3.76A3.34,3.34,0,0,0,21,17.53a3.41,3.41,0,0,0-1-2.47,3.32,3.32,0,0,0-1.14-.78L18.5,7.91h-2l-.32,6.37a3.28,3.28,0,0,0-1.1.74,3.37,3.37,0,0,0-1,2.45,3.41,3.41,0,0,0,1,2.47,3.33,3.33,0,0,0,2.43,1,3.89,3.89,0,0,0,.49,0l4.26,3.71Z"/>
</svg>
