<svg xmlns="http://www.w3.org/2000/svg" viewBox="0 0 35 35">
  <title>adaptive-days-protect</title>
  <path d="M15.56,27.16a31.2,31.2,0,0,0,4.86,3.12V4.37H10.21V19Q10.21,23,15.56,27.16ZM5.83,0H35V19a10.42,10.42,0,0,1-.76,3.88,14.39,14.39,0,0,1-1.89,3.42,21.88,21.88,0,0,1-2.69,2.91,29.78,29.78,0,0,1-2.89,2.34c-.88.63-1.8,1.22-2.75,1.77s-1.64.93-2,1.13-.73.35-1,.45a1.31,1.31,0,0,1-.59.14,1.36,1.36,0,0,1-.6-.14q-.36-.15-1-.45c-.41-.2-1.09-.58-2-1.13a32.44,32.44,0,0,1-2.76-1.77,31,31,0,0,1-2.88-2.34,21.23,21.23,0,0,1-2.69-2.91A14.39,14.39,0,0,1,6.6,22.84,10.44,10.44,0,0,1,5.83,19V0Z"/>
  <polygon points="0 2.87 1.47 0.12 17.89 9.44 16.44 12.26 0 2.87"/>
  <polygon points="0 9.45 1.47 6.7 17.89 16.02 16.44 18.84 0 9.45"/>
  <polygon points="0 16.45 1.47 13.7 17.89 23.02 16.44 25.84 0 16.45"/>
</svg>
