<svg xmlns="http://www.w3.org/2000/svg" viewBox="0 0 69.94 64.98"><defs><style>.cls-1{fill:#1a1a1a;}</style></defs><title>hand-truck</title><g id="Layer_2" data-name="Layer 2"><g id="Layer_1-2" data-name="Layer 1"><path class="cls-1" d="M69.63,46.68l-29.2,8.2c0-.37-.1-.72-.15-1.06s-.11-.69-.16-1a8.69,8.69,0,0,0-.35-1c-.13-.31-.27-.65-.43-1l29-8.12ZM25.68,57a3.73,3.73,0,0,0,1.72,2.38,3.25,3.25,0,0,0,2.81.36,3.58,3.58,0,0,0,2.34-1.8,3.67,3.67,0,0,0,.31-3,3.77,3.77,0,0,0-1.71-2.38,3.29,3.29,0,0,0-2.81-.35A3.55,3.55,0,0,0,26,54,3.68,3.68,0,0,0,25.68,57ZM27,47a7.86,7.86,0,0,1,6.59.9,8.77,8.77,0,0,1,4.1,5.58,9.07,9.07,0,0,1-.9,7,8.37,8.37,0,0,1-5.26,4.21,8.07,8.07,0,0,1-6.68-.89,8.85,8.85,0,0,1-4.1-5.59,9,9,0,0,1,.9-6.9A8.75,8.75,0,0,1,27,47Zm-.7-2.5a4.6,4.6,0,0,0-.94.28c-.31.13-.63.27-.94.43L13.74,3.75h-4a3,3,0,0,1-.9,1,2.24,2.24,0,0,1-1.37.43h-5A2.36,2.36,0,0,1,.74,4.45,2.65,2.65,0,0,1,0,2.58,2.53,2.53,0,0,1,.74.74,2.43,2.43,0,0,1,2.5,0h5A2.28,2.28,0,0,1,8.66.31a2.42,2.42,0,0,1,.86.78h7.65v.16l.16-.08,11,42.93-1,.16A8.65,8.65,0,0,0,26.31,44.49Zm-1.1-29.42,24.2-6.8,3.9,15.15L29.12,30.13ZM36.77,47.15a9.94,9.94,0,0,0-1.84-1.45,11.51,11.51,0,0,0-2.07-1l-3-11.87L66,22.72l3.9,15.14Z"/></g></g></svg>