<svg xmlns="http://www.w3.org/2000/svg" viewBox="0 0 23.1 23.1"><title>intagram</title><g id="Layer_2" data-name="Layer 2"><g id="Layer_1-2" data-name="Layer 1"><path d="M23.1,3V20.14a3,3,0,0,1-3,3H3a2.86,2.86,0,0,1-2.09-.87A2.86,2.86,0,0,1,0,20.14V3A2.86,2.86,0,0,1,.87.87,2.86,2.86,0,0,1,3,0H20.14a2.86,2.86,0,0,1,2.09.87A2.86,2.86,0,0,1,23.1,3ZM20.48,6.09V3.61a1,1,0,0,0-.3-.73,1,1,0,0,0-.73-.31H16.83a1,1,0,0,0-.74.31,1,1,0,0,0-.3.73V6.09a1,1,0,0,0,1,1h2.62a1,1,0,0,0,.73-.3A1,1,0,0,0,20.48,6.09ZM16.21,11.5a4.26,4.26,0,0,0-1.36-3.18A4.58,4.58,0,0,0,11.56,7,4.57,4.57,0,0,0,8.29,8.32a4.41,4.41,0,0,0,0,6.37A4.57,4.57,0,0,0,11.56,16a4.58,4.58,0,0,0,3.29-1.31A4.27,4.27,0,0,0,16.21,11.5Zm4.27,8V9.78h-2a6.44,6.44,0,0,1,.3,2,6.67,6.67,0,0,1-1,3.49,7,7,0,0,1-2.62,2.54,7.22,7.22,0,0,1-3.61.93,7,7,0,0,1-5.06-2,6.58,6.58,0,0,1-2.11-4.92,6.44,6.44,0,0,1,.3-2H2.57v9.74a.91.91,0,0,0,.92.92H19.57a.87.87,0,0,0,.64-.27A.86.86,0,0,0,20.48,19.52Z"/></g></g></svg>