<svg id="Layer_1" xmlns="http://www.w3.org/2000/svg" viewBox="0 0 100 22.3"><style>.st0{fill:#fff}</style><title>logo</title><path class="st0" d="M4.2 4.1c-.2 0-.4.2-.4.4v6.8c0 .2.2.4.4.4h3.9c2.8 0 4.6-1.6 4.6-3.8 0-2.5-1.8-3.8-4.6-3.8H4.2m-.4 17.8H0V.7h8.4c5 0 8.1 2.8 8.1 7.1v.1c0 4.8-3.8 7.3-8.6 7.3H3.8v6.7M22.1 4.1c-.2 0-.4.2-.4.4v6.2c0 .2.2.4.4.4h5c2.7 0 4.4-1.4 4.4-3.6v.1c0-2.3-1.6-3.5-4.4-3.5h-5m14.3 17.8H32l-5.6-7.4H21.7v7.4h-3.8V.7h9.5c2.7 0 4.8.8 6.2 2.1 1.1 1.2 1.8 2.7 1.8 4.6v.1c0 3.5-2.1 5.6-5.1 6.4l6.1 8m5.6 0h-3.8V.7H42v21.2zM73.3 4.1c-.2 0-.4.2-.4.4v6.2c0 .2.2.4.4.4h5.1c2.7 0 4.4-1.4 4.4-3.6v.1c0-2.3-1.6-3.5-4.4-3.5h-5.1m14.2 17.8h-4.4l-5.6-7.4H72.8v7.4H69V.7h9.5c2.7 0 4.8.8 6.2 2.1 1.1 1.2 1.8 2.7 1.8 4.6v.1c0 3.5-2.1 5.6-5.1 6.4l6.1 8m6.4 0h-3.8V.7h3.8v21.2zM55.8 3.7c-3.2 0-5.6 1.9-6.7 4.6-.6 1.5-.2 3.3.9 4.4l4.2 4.4c.8.9 2 1.4 3.1 1.4.6 0 1.2-.1 1.7-.4 2.5-1.2 4-3.8 4-6.8v-.1c.1-4-2.9-7.5-7.2-7.5m0 18.6c-6.6 0-11.1-4.9-11.1-10.9v-.1c0-6 4.6-11 11.2-11S67 5.2 67 11.2v.1c.1 6-4.6 11-11.2 11M97.6 1.3h-.3v.9h.3c.3 0 .6-.1.6-.4 0-.3-.1-.5-.6-.5m1.2 2.3h-.4c-.1-.1-.1-.3-.2-.6s-.2-.4-.5-.4h-.3v1.1H97V1.1c.1-.1.4-.1.7-.1.4 0 .6.1.8.2.2.1.2.3.2.5 0 .3-.2.5-.5.6.2 0 .4.2.4.6.1.4.1.6.2.7m-1-3.2c-1 0-1.8.9-1.8 1.9 0 1.1.8 1.9 1.8 1.9s1.8-.8 1.8-1.9c0-1.1-.8-1.9-1.8-1.9m0 4.1c-1.2 0-2.2-1-2.2-2.3 0-1.3 1-2.3 2.2-2.3C99 0 100 1 100 2.3c0 1.2-1 2.2-2.2 2.2"/></svg>