<svg xmlns="http://www.w3.org/2000/svg" viewBox="0 0 194.23 194.23">
  <defs>
    <style>
      .a, .c, .d, .e {
        fill: none;
      }

      .a {
        stroke: #e6e7e8;
        stroke-miterlimit: 10;
        stroke-dasharray: 11.68 9.35;
        opacity: 0.8;
      }

      .a, .b, .c, .d, .e {
        stroke-width: 3px;
      }

      .b {
        fill: #fff;
      }

      .b, .c {
        stroke: #231f20;
      }

      .b, .c, .d, .e {
        stroke-linecap: round;
        stroke-linejoin: round;
      }

      .d {
        stroke: #ffc600;
      }

      .e {
        stroke: #000;
      }
    </style>
  </defs>
  <title>Priori_Web_Icon_Real-Time</title>
  <g>
    <circle class="a" cx="97.11" cy="97.11" r="95.61"/>
    <circle class="b" cx="98.18" cy="97.11" r="83.25"/>
    <line class="c" x1="119.18" y1="137.08" x2="79.84" y2="137.08"/>
    <line class="c" x1="119.18" y1="68.65" x2="79.84" y2="68.65"/>
    <path class="c" d="M82,136v-.68A34.44,34.44,0,0,1,94.68,108.6l6.74-5.48c10.23-8.89,14.23-17.89,13.23-33.89"/>
    <path class="c" d="M103.58,109.08a34.42,34.42,0,0,1,12.7,26.71h0"/>
    <path class="c" d="M95.68,99.33c-8-6.54-13-15.1-13-30.1"/>
    <line class="d" x1="111.22" y1="131.25" x2="87.78" y2="131.25"/>
    <line class="d" x1="108.9" y1="125.44" x2="90.88" y2="125.44"/>
    <line class="e" x1="104.44" y1="118.94" x2="93.02" y2="118.94"/>
    <line class="e" x1="104.44" y1="86.78" x2="93.02" y2="86.78"/>
    <line class="e" x1="108.9" y1="74.71" x2="88.58" y2="74.71"/>
    <line class="e" x1="107.33" y1="81.36" x2="90.88" y2="81.36"/>
    <line class="e" x1="100.86" y1="113.1" x2="97.11" y2="113.1"/>
    <line class="e" x1="100.4" y1="92.96" x2="98.05" y2="92.96"/>
  </g>
</svg>
