<svg version="1.1" id="el_mr4I1b5IM3" xmlns="http://www.w3.org/2000/svg" xmlns:xlink="http://www.w3.org/1999/xlink" x="0px" y="0px" viewBox="0 0 173 173" style="enable-background:new 0 0 173.9 173.9;" xml:space="preserve"><style>@-webkit-keyframes el_b4rz-44ybJE_joT-QEN_o_Animation{0%{-webkit-transform: scale(1, 1);transform: scale(1, 1);}50%{-webkit-transform: scale(0.9, 0.9);transform: scale(0.9, 0.9);}100%{-webkit-transform: scale(1, 1);transform: scale(1, 1);}}@keyframes el_b4rz-44ybJE_joT-QEN_o_Animation{0%{-webkit-transform: scale(1, 1);transform: scale(1, 1);}50%{-webkit-transform: scale(0.9, 0.9);transform: scale(0.9, 0.9);}100%{-webkit-transform: scale(1, 1);transform: scale(1, 1);}}@-webkit-keyframes el_Bc2E2QCyyW7_eyypB2wdh_Animation{0%{-webkit-transform: scale(1, 1);transform: scale(1, 1);}50%{-webkit-transform: scale(1.15, 1.15);transform: scale(1.15, 1.15);}100%{-webkit-transform: scale(1, 1);transform: scale(1, 1);}}@keyframes el_Bc2E2QCyyW7_eyypB2wdh_Animation{0%{-webkit-transform: scale(1, 1);transform: scale(1, 1);}50%{-webkit-transform: scale(1.15, 1.15);transform: scale(1.15, 1.15);}100%{-webkit-transform: scale(1, 1);transform: scale(1, 1);}}#el_mr4I1b5IM3 *{-webkit-animation-duration: 3s;animation-duration: 3s;-webkit-animation-iteration-count: infinite;animation-iteration-count: infinite;-webkit-animation-timing-function: cubic-bezier(0, 0, 1, 1);animation-timing-function: cubic-bezier(0, 0, 1, 1);}#el_of2ICJh9xND{fill: #FFFFFF;}#el__nScsDeOzMX{fill: #231F20;}#el_irDgvh7iRNH{fill: #231F20;}#el_EMwHhzkZzbU{fill: #231F20;}#el_lcpNC1czbAn{fill: #231F20;}#el_ghvuo2cYrVg{fill: #231F20;}#el_x6A_sawtMGw{fill: #231F20;}#el_3aDSi5CYs1o{fill: #231F20;}#el_YigL-IaNHwl{fill: #231F20;}#el_PSKBfiaO9mI{fill: #231F20;}#el_423clZ-v1M5{fill: #231F20;}#el_Bc2E2QCyyW7_eyypB2wdh{-webkit-animation-name: el_Bc2E2QCyyW7_eyypB2wdh_Animation;animation-name: el_Bc2E2QCyyW7_eyypB2wdh_Animation;-webkit-transform-origin: 50% 50%;transform-origin: 50% 50%;transform-box: fill-box;-webkit-transform: scale(1, 1);transform: scale(1, 1);-webkit-animation-timing-function: cubic-bezier(0.42, 0, 0.58, 1);animation-timing-function: cubic-bezier(0.42, 0, 0.58, 1);}#el_b4rz-44ybJE_joT-QEN_o{-webkit-animation-name: el_b4rz-44ybJE_joT-QEN_o_Animation;animation-name: el_b4rz-44ybJE_joT-QEN_o_Animation;-webkit-transform-origin: 50% 50%;transform-origin: 50% 50%;transform-box: fill-box;-webkit-transform: scale(1, 1);transform: scale(1, 1);-webkit-animation-timing-function: cubic-bezier(0.42, 0, 0.58, 1);animation-timing-function: cubic-bezier(0.42, 0, 0.58, 1);}</style>

<circle id="el_of2ICJh9xND" cx="87" cy="86.5" r="85"/>
<path id="el__nScsDeOzMX" d="M87,173c-47.7,0-86.5-38.8-86.5-86.5S39.3,0,87,0s86.5,38.8,86.5,86.5S134.7,173,87,173z&#10;&#9; M87,3C41,3,3.5,40.5,3.5,86.5S41,170,87,170s83.5-37.5,83.5-83.5S133,3,87,3z"/>
<g id="el_b4rz-44ybJE_joT-QEN_o" data-animator-group="true" data-animator-type="2"><g id="el_b4rz-44ybJE">
	<path d="M87,108.3c-12,0-21.8-9.8-21.8-21.8c0-12,9.8-21.8,21.8-21.8c12,0,21.8,9.8,21.8,21.8&#10;&#9;&#9;C108.8,98.5,99,108.3,87,108.3z M87,67.4c-10.5,0-19.1,8.6-19.1,19.1c0,10.5,8.6,19.1,19.1,19.1c10.5,0,19.1-8.6,19.1-19.1&#10;&#9;&#9;C106.1,76,97.5,67.4,87,67.4z" id="el_irDgvh7iRNH"/>
</g></g>
<g id="el_Bc2E2QCyyW7_eyypB2wdh" data-animator-group="true" data-animator-type="2"><g id="el_Bc2E2QCyyW7">
	<g id="el_SJWLgUPTI6s">
		<path id="el_EMwHhzkZzbU" d="M97.3,40.4c-0.6-0.6-1.5-0.6-2.1,0l-6.6,6.6V18.7c0-0.8-0.7-1.5-1.5-1.5s-1.5,0.7-1.5,1.5v28.4&#10;&#9;&#9;&#9;l-6.6-6.6c-0.6-0.6-1.5-0.6-2.1,0c-0.6,0.6-0.6,1.5,0,2.1l9.2,9.2c0.1,0.1,0.3,0.3,0.5,0.3c0,0,0,0,0,0c0.2,0.1,0.4,0.1,0.5,0.1&#10;&#9;&#9;&#9;s0.4,0,0.5-0.1c0,0,0,0,0,0c0.2-0.1,0.4-0.2,0.5-0.3l9.2-9.2C97.8,42,97.8,41,97.3,40.4z"/>
		<path id="el_lcpNC1czbAn" d="M64,60.7v-13c0-0.8-0.7-1.5-1.5-1.5S61,46.9,61,47.7v9.4L41,37c-0.6-0.6-1.5-0.6-2.1,0&#10;&#9;&#9;&#9;c-0.6,0.6-0.6,1.5,0,2.1l20,20h-9.4c-0.8,0-1.5,0.7-1.5,1.5s0.7,1.5,1.5,1.5h13c0.2,0,0.4,0,0.5-0.1c0,0,0,0,0,0&#10;&#9;&#9;&#9;c0.4-0.2,0.7-0.4,0.8-0.8c0,0,0,0,0,0C64,61.1,64,60.9,64,60.7z"/>
		<path id="el_ghvuo2cYrVg" d="M53.9,85.1C53.9,85.1,53.9,85.1,53.9,85.1C53.9,85.1,53.9,85.1,53.9,85.1c0-0.2,0-0.4-0.1-0.5&#10;&#9;&#9;&#9;c0,0,0,0,0,0c-0.1-0.2-0.2-0.4-0.3-0.5l-9.2-9.2c-0.6-0.6-1.5-0.6-2.1,0c-0.6,0.6-0.6,1.5,0,2.1l6.6,6.6H20.4&#10;&#9;&#9;&#9;c-0.8,0-1.5,0.7-1.5,1.5s0.7,1.5,1.5,1.5h28.4l-6.6,6.6c-0.6,0.6-0.6,1.5,0,2.1c0.3,0.3,0.7,0.4,1.1,0.4s0.8-0.1,1.1-0.4l9.2-9.2&#10;&#9;&#9;&#9;c0.1-0.1,0.3-0.3,0.3-0.5c0,0,0,0,0,0C53.9,85.5,53.9,85.3,53.9,85.1z"/>
		<path id="el_x6A_sawtMGw" d="M63.9,109.5c0-0.2,0-0.4-0.1-0.5c0,0,0,0,0,0c-0.1-0.2-0.2-0.4-0.3-0.5c0,0,0,0,0,0&#10;&#9;&#9;&#9;c0,0,0,0,0,0c-0.1-0.1-0.3-0.2-0.5-0.3c0,0,0,0,0,0c-0.2-0.1-0.4-0.1-0.5-0.1h-13c-0.8,0-1.5,0.7-1.5,1.5s0.7,1.5,1.5,1.5h9.4&#10;&#9;&#9;&#9;l-20.1,20.1c-0.6,0.6-0.6,1.5,0,2.1c0.3,0.3,0.7,0.4,1.1,0.4c0.4,0,0.8-0.1,1.1-0.4l20-20.1v9.4c0,0.8,0.7,1.5,1.5,1.5&#10;&#9;&#9;&#9;s1.5-0.7,1.5-1.5L63.9,109.5C63.9,109.5,63.9,109.5,63.9,109.5C63.9,109.5,63.9,109.5,63.9,109.5z"/>
		<path id="el_3aDSi5CYs1o" d="M97,127.8l-9.2-9.2c-0.1-0.1-0.3-0.3-0.5-0.3c0,0,0,0,0,0c-0.2-0.1-0.4-0.1-0.5-0.1&#10;&#9;&#9;&#9;s-0.4,0-0.5,0.1c0,0,0,0,0,0c-0.2,0.1-0.4,0.2-0.5,0.3l-9.2,9.2c-0.6,0.6-0.6,1.5,0,2.1s1.5,0.6,2.1,0l6.6-6.6v28.4&#10;&#9;&#9;&#9;c0,0.8,0.7,1.5,1.5,1.5s1.5-0.7,1.5-1.5v-28.4l6.6,6.6c0.3,0.3,0.7,0.4,1.1,0.4s0.8-0.1,1.1-0.4C97.5,129.4,97.5,128.4,97,127.8z"/>
		<path id="el_YigL-IaNHwl" d="M134.9,131.2l-20-20h9.4c0.8,0,1.5-0.7,1.5-1.5s-0.7-1.5-1.5-1.5h-13c-0.2,0-0.4,0-0.5,0.1&#10;&#9;&#9;&#9;c0,0,0,0,0,0c-0.4,0.2-0.7,0.4-0.8,0.8c0,0,0,0,0,0c-0.1,0.2-0.1,0.4-0.1,0.5v13c0,0.8,0.7,1.5,1.5,1.5s1.5-0.7,1.5-1.5v-9.4&#10;&#9;&#9;&#9;l20,20c0.3,0.3,0.7,0.4,1.1,0.4s0.8-0.1,1.1-0.4C135.4,132.8,135.4,131.8,134.9,131.2z"/>
		<path id="el_PSKBfiaO9mI" d="M153.4,83.8H125l6.5-6.5c0.6-0.6,0.6-1.5,0-2.1c-0.6-0.6-1.5-0.6-2.1,0l-9.1,9.1&#10;&#9;&#9;&#9;c-0.1,0.1-0.3,0.3-0.3,0.5c0,0,0,0,0,0c-0.1,0.2-0.1,0.4-0.1,0.5c0,0,0,0,0,0c0,0,0,0,0,0c0,0.2,0,0.4,0.1,0.5c0,0,0,0,0,0&#10;&#9;&#9;&#9;c0.1,0.2,0.2,0.3,0.3,0.5c0,0,0,0,0,0l0,0c0,0,0,0,0,0l9.1,9.2c0.3,0.3,0.7,0.4,1.1,0.4c0.4,0,0.8-0.1,1.1-0.4&#10;&#9;&#9;&#9;c0.6-0.6,0.6-1.5,0-2.1l-6.6-6.6h28.4c0.8,0,1.5-0.7,1.5-1.5S154.2,83.8,153.4,83.8z"/>
	</g>
	<path id="el_423clZ-v1M5" d="M135.1,37.2c-0.6-0.6-1.5-0.6-2.1,0l-20.1,20.1v-9.4c0-0.8-0.7-1.5-1.5-1.5s-1.5,0.7-1.5,1.5v13&#10;&#9;&#9;c0,0,0,0,0,0v0c0,0.2,0,0.4,0.1,0.5c0,0,0,0,0,0c0.1,0.2,0.2,0.3,0.3,0.5c0,0,0,0,0,0c0,0,0,0,0,0c0.1,0.1,0.3,0.3,0.5,0.3&#10;&#9;&#9;c0,0,0,0,0,0c0.2,0.1,0.4,0.1,0.6,0.1h13c0.8,0,1.5-0.7,1.5-1.5s-0.7-1.5-1.5-1.5h-9.4l20.1-20C135.6,38.8,135.6,37.8,135.1,37.2z"/>
</g></g>
<script>(function(){var a=document.querySelector('#el_mr4I1b5IM3'),b=a.querySelectorAll('style'),c=function(d){b.forEach(function(f){var g=f.textContent;g&amp;&amp;(f.textContent=g.replace(/transform-box:[^;\r\n]*/gi,'transform-box: '+d))})};c('initial'),window.requestAnimationFrame(function(){return c('fill-box')})})();</script></svg>