<svg xmlns="http://www.w3.org/2000/svg" viewBox="0 0 193.77 193.77">
  <defs>
    <style>
      .a, .c, .d, .e {
        fill: none;
      }

      .a {
        stroke: #e6e7e8;
        stroke-miterlimit: 10;
        stroke-dasharray: 11.49 9.19;
        opacity: 0.8;
      }

      .a, .b, .c, .d, .e {
        stroke-width: 3px;
      }

      .b {
        fill: #fff;
      }

      .b, .e {
        stroke: #231f20;
      }

      .b, .c, .d, .e {
        stroke-linecap: round;
        stroke-linejoin: round;
      }

      .c {
        stroke: #ffc600;
      }

      .d {
        stroke: #000;
      }
    </style>
  </defs>
  <title>Priori_Web_Icon_Intelligent</title>
  <g>
    <circle class="a" cx="96.89" cy="96.89" r="95.38"/>
    <circle class="b" cx="96.89" cy="96.89" r="84.44"/>
    <path class="c" d="M130.61,124.17a21.21,21.21,0,0,1-10.75,3.16,29.75,29.75,0,0,1-16.53-5.13c-4.07-2.63-7.65-6-12-8.21a25.81,25.81,0,0,0-20.57-1.17A25.13,25.13,0,0,0,65,115.9"/>
    <line class="d" x1="94.82" y1="98.24" x2="94.82" y2="64.73"/>
    <line class="d" x1="84.21" y1="97.31" x2="84.21" y2="70.19"/>
    <line class="c" x1="106.18" y1="97.31" x2="106.18" y2="70.19"/>
    <line class="d" x1="117.16" y1="97.31" x2="117.25" y2="79.64"/>
    <line class="d" x1="128.14" y1="97.31" x2="128.23" y2="86.24"/>
    <line class="c" x1="62.25" y1="97.31" x2="62.34" y2="86.24"/>
    <line class="d" x1="73.23" y1="97.31" x2="73.32" y2="79.64"/>
    <line class="e" x1="61.34" y1="119.27" x2="128.6" y2="119.27"/>
    <circle class="b" cx="59.27" cy="118.79" r="4.8"/>
    <circle class="b" cx="130.27" cy="118.79" r="4.8"/>
  </g>
</svg>
