<svg xmlns="http://www.w3.org/2000/svg" viewBox="0 0 193.77 193.77">
  <defs>
    <style>
      .a, .c, .d, .e {
        fill: none;
      }

      .a {
        stroke: #e6e7e8;
        stroke-miterlimit: 10;
        stroke-dasharray: 11.49 9.19;
        opacity: 0.8;
      }

      .a, .b, .c, .d, .e {
        stroke-width: 3px;
      }

      .b {
        fill: #fff;
      }

      .b, .c {
        stroke: #231f20;
      }

      .b, .c, .d, .e {
        stroke-linecap: round;
        stroke-linejoin: round;
      }

      .d {
        stroke: #000;
      }

      .e {
        stroke: #ffc600;
      }
    </style>
  </defs>
  <title>Priori_Web_Icon_Bio-Tech</title>
  <g>
    <circle class="a" cx="96.89" cy="96.89" r="95.39"/>
    <circle class="b" cx="96.89" cy="96.89" r="84.44"/>
    <path class="c" d="M111.58,56.39a29.11,29.11,0,0,1,1,15.35c-1.61,7.88-6.16,14.94-11.92,20.56-4.75,4.64-10.37,8.41-14.63,13.51A35.46,35.46,0,0,0,78.14,133a34.27,34.27,0,0,0,2.37,8.65"/>
    <path class="c" d="M102,101.62a34.45,34.45,0,0,1,12.71,26.72h0"/>
    <path class="c" d="M80.57,65.51v.68a34.42,34.42,0,0,0,8.89,23.09"/>
    <line class="d" x1="108.66" y1="126.99" x2="85.22" y2="126.99"/>
    <line class="d" x1="106.33" y1="120.16" x2="88.32" y2="120.16"/>
    <line class="d" x1="106.33" y1="134.27" x2="88.32" y2="134.27"/>
    <line class="d" x1="101.88" y1="112.51" x2="90.46" y2="112.51"/>
    <line class="e" x1="101.88" y1="79.33" x2="90.46" y2="79.33"/>
    <line class="e" x1="101.88" y1="57.27" x2="90.46" y2="57.27"/>
    <line class="d" x1="106.33" y1="65.31" x2="86.01" y2="65.31"/>
    <line class="d" x1="104.77" y1="73.04" x2="88.32" y2="73.04"/>
    <line class="d" x1="98.29" y1="105.65" x2="94.55" y2="105.65"/>
    <line class="d" x1="97.84" y1="86.51" x2="95.49" y2="86.51"/>
  </g>
</svg>
