<svg version="1.1" id="el_ngg7nR-_Pg" xmlns="http://www.w3.org/2000/svg" xmlns:xlink="http://www.w3.org/1999/xlink" x="0px" y="0px" viewBox="0 0 173 173" style="enable-background:new 0 0 173.9 173.9;" xml:space="preserve"><style>@-webkit-keyframes el_M3j_chRjiX_JyxCboJaq_Animation{0%{-webkit-transform: scale(1, 1);transform: scale(1, 1);}16.67%{-webkit-transform: scale(1.05, 1.05);transform: scale(1.05, 1.05);}33.33%{-webkit-transform: scale(1, 1);transform: scale(1, 1);}50%{-webkit-transform: scale(1.05, 1.05);transform: scale(1.05, 1.05);}66.67%{-webkit-transform: scale(1, 1);transform: scale(1, 1);}83.33%{-webkit-transform: scale(1.05, 1.05);transform: scale(1.05, 1.05);}100%{-webkit-transform: scale(1, 1);transform: scale(1, 1);}}@keyframes el_M3j_chRjiX_JyxCboJaq_Animation{0%{-webkit-transform: scale(1, 1);transform: scale(1, 1);}16.67%{-webkit-transform: scale(1.05, 1.05);transform: scale(1.05, 1.05);}33.33%{-webkit-transform: scale(1, 1);transform: scale(1, 1);}50%{-webkit-transform: scale(1.05, 1.05);transform: scale(1.05, 1.05);}66.67%{-webkit-transform: scale(1, 1);transform: scale(1, 1);}83.33%{-webkit-transform: scale(1.05, 1.05);transform: scale(1.05, 1.05);}100%{-webkit-transform: scale(1, 1);transform: scale(1, 1);}}#el_ngg7nR-_Pg *{-webkit-animation-duration: 3s;animation-duration: 3s;-webkit-animation-iteration-count: infinite;animation-iteration-count: infinite;-webkit-animation-timing-function: cubic-bezier(0, 0, 1, 1);animation-timing-function: cubic-bezier(0, 0, 1, 1);}#el_S9AHVHMZyL{fill: #FFFFFF;}#el__f4gDy-JNw{fill: #231F20;}#el_1MyfTO0XVd{fill: #231F20;}#el_A3QyBeNzZWA{fill: #231F20;}#el_M3j_chRjiX_JyxCboJaq{-webkit-animation-name: el_M3j_chRjiX_JyxCboJaq_Animation;animation-name: el_M3j_chRjiX_JyxCboJaq_Animation;-webkit-transform-origin: 50% 50%;transform-origin: 50% 50%;transform-box: fill-box;-webkit-transform: scale(1, 1);transform: scale(1, 1);-webkit-animation-timing-function: cubic-bezier(0.42, 0, 0.58, 1);animation-timing-function: cubic-bezier(0.42, 0, 0.58, 1);}</style>

<circle id="el_S9AHVHMZyL" cx="87" cy="87" r="85.5"/>
<path id="el__f4gDy-JNw" d="M87,174c-48,0-87-39-87-87C0,39,39,0,87,0c48,0,87,39,87,87C174,135,135,174,87,174z M87,3&#10;&#9;C40.7,3,3,40.7,3,87c0,46.3,37.7,84,84,84c46.3,0,84-37.7,84-84C171,40.7,133.3,3,87,3z"/>
<g id="el_KXjTCdi40r">
	<path d="M86.5,110.8c-13.4,0-24.3-10.9-24.3-24.3c0-13.4,10.9-24.3,24.3-24.3c13.4,0,24.3,10.9,24.3,24.3&#10;&#9;&#9;C110.8,99.9,99.9,110.8,86.5,110.8z M86.5,65.2c-11.7,0-21.3,9.6-21.3,21.3c0,11.7,9.6,21.3,21.3,21.3c11.7,0,21.3-9.6,21.3-21.3&#10;&#9;&#9;C107.8,74.8,98.2,65.2,86.5,65.2z" id="el_1MyfTO0XVd"/>
</g>
<g id="el_M3j_chRjiX_JyxCboJaq" data-animator-group="true" data-animator-type="2"><g id="el_M3j_chRjiX">
	<path d="M86.9,164.7c-0.8,0-1.5-0.7-1.5-1.5l-0.8-46.4c0-0.8,0.6-1.5,1.5-1.5c0.8,0,1.5,0.6,1.5,1.5l0.8,46.4&#10;&#9;&#9;C88.4,164,87.8,164.7,86.9,164.7C86.9,164.7,86.9,164.7,86.9,164.7z M125.9,155.7c-0.5,0-1-0.3-1.3-0.7L100,113.7&#10;&#9;&#9;c-0.4-0.7-0.2-1.6,0.5-2.1c0.7-0.4,1.6-0.2,2.1,0.5l24.6,41.3c0.4,0.7,0.2,1.6-0.5,2.1C126.4,155.6,126.2,155.7,125.9,155.7z&#10;&#9;&#9; M47.9,153.7c-0.3,0-0.5-0.1-0.8-0.2c-0.7-0.4-1-1.3-0.5-2.1l23.1-39.7c0.4-0.7,1.3-1,2.1-0.5c0.7,0.4,1,1.3,0.5,2.1L49.2,153&#10;&#9;&#9;C48.9,153.4,48.4,153.7,47.9,153.7z M99,134.2c-0.7,0-1.3-0.4-1.4-1.1l-4-14c-0.2-0.8,0.2-1.6,1-1.9c0.8-0.2,1.6,0.2,1.9,1l4,14&#10;&#9;&#9;c0.2,0.8-0.2,1.6-1,1.9C99.3,134.2,99.1,134.2,99,134.2z M74.6,134.1c-0.1,0-0.2,0-0.4,0c-0.8-0.2-1.3-1-1.1-1.8l3.5-14.1&#10;&#9;&#9;c0.2-0.8,1-1.3,1.8-1.1c0.8,0.2,1.3,1,1.1,1.8L76.1,133C75.9,133.6,75.3,134.1,74.6,134.1z M153.9,126.7c-0.2,0-0.5-0.1-0.7-0.2&#10;&#9;&#9;l-41.4-23.2c-0.7-0.4-1-1.3-0.6-2c0.4-0.7,1.3-1,2-0.6l41.4,23.2c0.7,0.4,1,1.3,0.6,2C154.9,126.4,154.4,126.7,153.9,126.7z&#10;&#9;&#9; M18.9,126.7c-0.5,0-1-0.3-1.3-0.7c-0.4-0.7-0.2-1.6,0.5-2.1L59.3,100c0.7-0.4,1.6-0.2,2,0.5c0.4,0.7,0.2,1.6-0.5,2.1l-41.2,23.9&#10;&#9;&#9;C19.4,126.6,19.2,126.7,18.9,126.7z M120.3,122.1c-0.4,0-0.8-0.1-1-0.4l-10.5-10.2c-0.6-0.6-0.6-1.5,0-2.1c0.6-0.6,1.5-0.6,2.1,0&#10;&#9;&#9;l10.5,10.2c0.6,0.6,0.6,1.5,0,2.1C121.1,121.9,120.7,122.1,120.3,122.1z M53.4,121.8c-0.4,0-0.7-0.1-1-0.4c-0.6-0.6-0.6-1.5,0-2.1&#10;&#9;&#9;l10.1-10.5c0.6-0.6,1.5-0.6,2.1,0c0.6,0.6,0.6,1.5,0,2.1l-10.1,10.5C54.2,121.6,53.8,121.8,53.4,121.8z M132.6,100.9&#10;&#9;&#9;c-0.1,0-0.2,0-0.4,0l-14.1-3.5c-0.8-0.2-1.3-1-1.1-1.8c0.2-0.8,1-1.3,1.8-1.1l14.1,3.5c0.8,0.2,1.3,1,1.1,1.8&#10;&#9;&#9;C133.9,100.4,133.3,100.9,132.6,100.9z M41.2,100.5c-0.7,0-1.3-0.4-1.4-1.1c-0.2-0.8,0.2-1.6,1-1.9l14-4c0.8-0.2,1.6,0.2,1.9,1&#10;&#9;&#9;c0.2,0.8-0.2,1.6-1,1.9l-14,4C41.5,100.5,41.3,100.5,41.2,100.5z M116.8,88.4c-0.8,0-1.5-0.7-1.5-1.5c0-0.8,0.7-1.5,1.5-1.5&#10;&#9;&#9;l49.1-0.7c0,0,0,0,0,0c0.8,0,1.5,0.7,1.5,1.5c0,0.8-0.7,1.5-1.5,1.5L116.8,88.4C116.8,88.4,116.8,88.4,116.8,88.4z M7.9,87.7&#10;&#9;&#9;c-0.8,0-1.5-0.7-1.5-1.5c0-0.8,0.7-1.5,1.5-1.5l48.3-0.1c0,0,0,0,0,0c0.8,0,1.5,0.7,1.5,1.5c0,0.8-0.7,1.5-1.5,1.5L7.9,87.7&#10;&#9;&#9;C7.9,87.7,7.9,87.7,7.9,87.7z M118.7,80.4c-0.7,0-1.3-0.4-1.4-1.1c-0.2-0.8,0.2-1.6,1-1.9l14-4c0.8-0.2,1.6,0.2,1.9,1&#10;&#9;&#9;c0.2,0.8-0.2,1.6-1,1.9l-14,4C119,80.4,118.8,80.4,118.7,80.4z M55.4,79.6c-0.1,0-0.2,0-0.4,0l-14.1-3.5c-0.8-0.2-1.3-1-1.1-1.8&#10;&#9;&#9;c0.2-0.8,1-1.3,1.8-1.1l14.1,3.5c0.8,0.2,1.3,1,1.1,1.8C56.7,79.1,56.1,79.6,55.4,79.6z M112.9,73.2c-0.5,0-1-0.3-1.3-0.7&#10;&#9;&#9;c-0.4-0.7-0.2-1.6,0.5-2.1l41-24.5c0.7-0.4,1.6-0.2,2.1,0.5c0.4,0.7,0.2,1.6-0.5,2.1l-41,24.5C113.4,73.1,113.2,73.2,112.9,73.2z&#10;&#9;&#9; M60.5,72.5c-0.3,0-0.5-0.1-0.7-0.2L20.2,49.5c-0.7-0.4-1-1.3-0.6-2c0.4-0.7,1.3-1,2-0.6l39.6,22.8c0.7,0.4,1,1.3,0.6,2&#10;&#9;&#9;C61.5,72.2,61,72.5,60.5,72.5z M110.4,65.6c-0.4,0-0.8-0.1-1-0.4c-0.6-0.6-0.6-1.5,0-2.1l10.2-10.4c0.6-0.6,1.5-0.6,2.1,0&#10;&#9;&#9;c0.6,0.6,0.6,1.5,0,2.1l-10.2,10.4C111.2,65.4,110.8,65.6,110.4,65.6z M64.1,65c-0.4,0-0.8-0.1-1-0.4L52.7,54.5&#10;&#9;&#9;c-0.6-0.6-0.6-1.5,0-2.1s1.5-0.6,2.1,0l10.4,10.1c0.6,0.6,0.6,1.5,0,2.1C64.9,64.8,64.5,65,64.1,65z M102,62&#10;&#9;&#9;c-0.2,0-0.5-0.1-0.7-0.2c-0.7-0.4-1-1.3-0.6-2l23.9-42.3c0.4-0.7,1.3-1,2-0.6c0.7,0.4,1,1.3,0.6,2l-23.9,42.3&#10;&#9;&#9;C103,61.7,102.5,62,102,62z M71.7,61.6c-0.5,0-1-0.3-1.3-0.7L46.6,21c-0.4-0.7-0.2-1.6,0.5-2.1c0.7-0.4,1.6-0.2,2.1,0.5L73,59.3&#10;&#9;&#9;c0.4,0.7,0.2,1.6-0.5,2.1C72.2,61.5,72,61.6,71.7,61.6z M86.9,57.7c-0.8,0-1.5-0.7-1.5-1.5l-0.4-45c0-0.8,0.7-1.5,1.5-1.5&#10;&#9;&#9;c0,0,0,0,0,0c0.8,0,1.5,0.7,1.5,1.5l0.4,45C88.4,57,87.7,57.7,86.9,57.7C86.9,57.7,86.9,57.7,86.9,57.7z M95.9,56.9&#10;&#9;&#9;c-0.1,0-0.2,0-0.4,0c-0.8-0.2-1.3-1-1.1-1.8l3.5-14.1c0.2-0.8,1-1.3,1.8-1.1c0.8,0.2,1.3,1,1.1,1.8l-3.5,14.1&#10;&#9;&#9;C97.2,56.4,96.6,56.9,95.9,56.9z M78.9,56.7c-0.7,0-1.3-0.4-1.4-1.1l-4-14c-0.2-0.8,0.2-1.6,1-1.9c0.8-0.2,1.6,0.2,1.9,1l4,14&#10;&#9;&#9;c0.2,0.8-0.2,1.6-1,1.9C79.2,56.7,79,56.7,78.9,56.7z" id="el_A3QyBeNzZWA"/>
</g></g>
<script>(function(){var a=document.querySelector('#el_ngg7nR-_Pg'),b=a.querySelectorAll('style'),c=function(d){b.forEach(function(f){var g=f.textContent;g&amp;&amp;(f.textContent=g.replace(/transform-box:[^;\r\n]*/gi,'transform-box: '+d))})};c('initial'),window.requestAnimationFrame(function(){return c('fill-box')})})();</script></svg>