<svg id="Layer_1" xmlns="http://www.w3.org/2000/svg" viewBox="0 0 173.9 173.9"><style>.st0,.st1,.st2,.st3,.st4{fill:#fff;stroke:#6d6e70;stroke-width:3;stroke-miterlimit:10}.st1,.st2,.st3,.st4{fill:none;stroke-linecap:round;stroke-linejoin:round}.st2,.st3,.st4{fill:#fff}.st3,.st4{stroke:#231f20}.st4{fill:none}.st5{fill:#231f20}.st6{opacity:.8;fill:none;stroke:#e6e7e8;stroke-width:3;stroke-miterlimit:10;stroke-dasharray:11.6813,9.3451}.st7,.st8{stroke-linecap:round;stroke-linejoin:round}.st7{fill:none;stroke-width:3;stroke-miterlimit:10;stroke:#ffc600}.st8{stroke:#000}.st10,.st11,.st8,.st9{fill:none;stroke-width:3;stroke-miterlimit:10}.st9{stroke-linecap:round;stroke-linejoin:round;stroke:gray}.st10,.st11{opacity:.8;stroke:#e6e7e8;stroke-dasharray:11.4898,9.1919}.st11{stroke-dasharray:11.4895,9.1916}</style><circle class="st3" cx="87" cy="86.5" r="85"/><circle class="st4" cx="87" cy="86.5" r="22.8"/><path class="st4" d="M87 18.7v32M96.2 41.5L87 50.7l-9.2-9.2M39.9 38.1l22.6 22.6M62.5 47.7v13h-13M20.4 85.1h32M43.2 75.9l9.2 9.2-9.2 9.2M39.8 132.2l22.6-22.7M49.4 109.5h13v13M86.7 151.7v-32M77.5 128.9l9.2-9.2 9.2 9.2M133.8 132.3l-22.6-22.6M111.2 122.7v-13h13M153.4 85.3h-32M130.5 94.5l-9.1-9.2 9.1-9.1M134 38.3l-22.7 22.6M124.3 60.9h-13v-13"/></svg>