<svg xmlns="http://www.w3.org/2000/svg" viewBox="0 0 173.95 173.95">
  <defs>
    <style>
      .a {
        fill: #fff;
        stroke-miterlimit: 10;
      }

      .a, .b {
        stroke: #6d6e70;
        stroke-width: 3px;
      }

      .b {
        fill: none;
        stroke-linecap: round;
        stroke-linejoin: round;
      }
    </style>
  </defs>
  <title>Priori_Web_Icon_Afternoon</title>
  <g>
    <g>
      <circle class="a" cx="86.97" cy="86.97" r="85.47"/>
      <line class="b" x1="3.66" y1="100.92" x2="170.82" y2="100.92"/>
      <line class="b" x1="71.2" y1="100.92" x2="129.35" y2="100.92"/>
      <polyline class="b" points="24.25 100.92 56.73 100.92 62.69 100.92"/>
      <line class="b" x1="3.66" y1="100.92" x2="19.28" y2="100.92"/>
      <line class="b" x1="31.34" y1="114.87" x2="6.64" y2="114.87"/>
      <polyline class="b" points="93.89 114.87 55.74 114.87 41.41 114.87"/>
      <line class="b" x1="143.11" y1="114.87" x2="104.95" y2="114.87"/>
      <line class="b" x1="166.04" y1="114.87" x2="152.47" y2="114.87"/>
      <line class="b" x1="55.03" y1="128.81" x2="12.65" y2="128.81"/>
      <line class="b" x1="116.16" y1="128.81" x2="65.38" y2="128.81"/>
      <line class="b" x1="159.6" y1="128.81" x2="132.61" y2="128.81"/>
      <line class="b" x1="95.17" y1="142.76" x2="151.73" y2="142.76"/>
      <line class="b" x1="55.17" y1="142.76" x2="83.25" y2="142.76"/>
      <line class="b" x1="22.73" y1="142.76" x2="45.74" y2="142.76"/>
      <line class="b" x1="66.09" y1="156.71" x2="37.98" y2="156.71"/>
      <line class="b" x1="108.22" y1="156.71" x2="76.73" y2="156.71"/>
      <line class="b" x1="136.4" y1="156.71" x2="120.27" y2="156.71"/>
      <line class="b" x1="139.03" y1="80.58" x2="139.03" y2="55.92"/>
      <line class="b" x1="145.06" y1="64.23" x2="139.03" y2="56.01"/>
      <line class="b" x1="133" y1="64.23" x2="139.03" y2="56.01"/>
      <line class="b" x1="115.04" y1="80.54" x2="115.04" y2="34.6"/>
      <line class="b" x1="121.07" y1="42.9" x2="115.04" y2="34.69"/>
      <line class="b" x1="109.01" y1="42.9" x2="115.04" y2="34.69"/>
      <line class="b" x1="35.03" y1="80.58" x2="35.03" y2="55.92"/>
      <line class="b" x1="28.99" y1="64.23" x2="35.03" y2="56.01"/>
      <line class="b" x1="41.06" y1="64.23" x2="35.03" y2="56.01"/>
      <line class="b" x1="59.02" y1="80.54" x2="59.02" y2="34.6"/>
      <line class="b" x1="52.98" y1="42.9" x2="59.02" y2="34.69"/>
      <line class="b" x1="65.05" y1="42.9" x2="59.02" y2="34.69"/>
      <line class="b" x1="87.31" y1="80.54" x2="87.31" y2="21.27"/>
      <line class="b" x1="81.27" y1="29.57" x2="87.31" y2="21.36"/>
      <line class="b" x1="93.34" y1="29.57" x2="87.31" y2="21.36"/>
    </g>
    <path class="b" d="M56.18,100.87c10.43-6.37,21.63-9.72,33.23-9.48a59.94,59.94,0,0,1,29.74,8.91"/>
  </g>
</svg>
