<svg id="Layer_1" xmlns="http://www.w3.org/2000/svg" viewBox="0 0 173 173"><style>.st0,.st1,.st2,.st3,.st4{fill:#fff;stroke:#6d6e70;stroke-width:3;stroke-miterlimit:10}.st1,.st2,.st3,.st4{fill:none;stroke-linecap:round;stroke-linejoin:round}.st2,.st3,.st4{fill:#fff}.st3,.st4{stroke:#231f20}.st4{fill:none}.st5{fill:#231f20}.st6{opacity:.8;fill:none;stroke:#e6e7e8;stroke-width:3;stroke-miterlimit:10;stroke-dasharray:11.6813,9.3451}.st7,.st8{stroke-linecap:round;stroke-linejoin:round}.st7{fill:none;stroke-width:3;stroke-miterlimit:10;stroke:#ffc600}.st8{stroke:#000}.st10,.st11,.st8,.st9{fill:none;stroke-width:3;stroke-miterlimit:10}.st9{stroke-linecap:round;stroke-linejoin:round;stroke:gray}.st10,.st11{opacity:.8;stroke:#e6e7e8;stroke-dasharray:11.4898,9.1919}.st11{stroke-dasharray:11.4895,9.1916}</style><circle class="st3" cx="86.5" cy="86.5" r="85"/><circle class="st3" cx="86.5" cy="86.5" r="44.7"/><circle class="st4" cx="86.5" cy="86.5" r="67.7"/><circle class="st5" cx="86.5" cy="86.5" r="22.8"/><circle class="st5" cx="86.5" cy="18.5" r="4.8"/><circle class="st5" cx="86.5" cy="154.5" r="4.8"/><circle class="st5" cx="52.5" cy="27.6" r="4.8"/><circle class="st5" cx="120.5" cy="145.4" r="4.8"/><ellipse transform="rotate(-30 65.422 48.484)" class="st5" cx="65.4" cy="48.5" rx="4.8" ry="4.6"/><ellipse transform="rotate(-30 110.291 125.58)" class="st5" cx="110.3" cy="125.6" rx="4.8" ry="4.6"/><circle class="st5" cx="27.6" cy="52.5" r="4.8"/><circle class="st5" cx="145.4" cy="120.5" r="4.8"/><g><circle class="st5" cx="18.5" cy="86.5" r="4.8"/><circle class="st5" cx="154.5" cy="86.5" r="4.8"/></g><g><circle class="st5" cx="27.6" cy="120.5" r="4.8"/><circle class="st5" cx="145.4" cy="52.5" r="4.8"/></g><g><circle class="st5" cx="52.5" cy="145.4" r="4.8"/><circle class="st5" cx="120.5" cy="27.6" r="4.8"/></g></svg>