<svg version="1.1" id="el_Mc4wgYD1m" xmlns="http://www.w3.org/2000/svg" xmlns:xlink="http://www.w3.org/1999/xlink" x="0px" y="0px" viewBox="0 0 173 173" style="enable-background:new 0 0 173 173;" xml:space="preserve"><style>@-webkit-keyframes el_iFhWGmN8a6_aLTII4JVp_Animation{0%{-webkit-transform: scale(1, 1);transform: scale(1, 1);}50%{-webkit-transform: scale(1.25, 1.25);transform: scale(1.25, 1.25);}100%{-webkit-transform: scale(1, 1);transform: scale(1, 1);}}@keyframes el_iFhWGmN8a6_aLTII4JVp_Animation{0%{-webkit-transform: scale(1, 1);transform: scale(1, 1);}50%{-webkit-transform: scale(1.25, 1.25);transform: scale(1.25, 1.25);}100%{-webkit-transform: scale(1, 1);transform: scale(1, 1);}}@-webkit-keyframes el_ojQhCuZVpL_g054edaMt_Animation{0%{-webkit-transform: rotate(0deg);transform: rotate(0deg);}100%{-webkit-transform: rotate(-360deg);transform: rotate(-360deg);}}@keyframes el_ojQhCuZVpL_g054edaMt_Animation{0%{-webkit-transform: rotate(0deg);transform: rotate(0deg);}100%{-webkit-transform: rotate(-360deg);transform: rotate(-360deg);}}@-webkit-keyframes el_YGD7zXRMXd_ZH3DBStnc_Animation{0%{-webkit-transform: rotate(0deg);transform: rotate(0deg);}100%{-webkit-transform: rotate(360deg);transform: rotate(360deg);}}@keyframes el_YGD7zXRMXd_ZH3DBStnc_Animation{0%{-webkit-transform: rotate(0deg);transform: rotate(0deg);}100%{-webkit-transform: rotate(360deg);transform: rotate(360deg);}}#el_Mc4wgYD1m *{-webkit-animation-duration: 3s;animation-duration: 3s;-webkit-animation-iteration-count: infinite;animation-iteration-count: infinite;-webkit-animation-timing-function: cubic-bezier(0, 0, 1, 1);animation-timing-function: cubic-bezier(0, 0, 1, 1);}#el_Iyv30omVdL{fill: #FFFFFF;}#el_jGOC51I6bD{fill: #231F20;}#el_sGFlaSVoIp{fill: #FFFFFF;}#el_nSsB2tvx4R{fill: #231F20;}#el_WwLktfKgzQ{fill: #231F20;-webkit-transform: matrix(0.866, -0.5, 0.5, 0.866, -15.491, 39.2042);transform: matrix(0.866, -0.5, 0.5, 0.866, -15.491, 39.2042);}#el_Kydmzs4Dsq{fill: #231F20;-webkit-transform: matrix(0.866, -0.5, 0.5, 0.866, -48.0178, 71.9806);transform: matrix(0.866, -0.5, 0.5, 0.866, -48.0178, 71.9806);}#el_Ioa-IS-ruL{fill: #231F20;}#el_iFhWGmN8a6{fill: #231F20;}#el_zFqVc3-8r-1{fill: #231F20;}#el_H_X4IXxEo-r{fill: #231F20;}#el_0zAgF9p1mP5{fill: #231F20;}#el_6Str8JmYUN5{fill: #231F20;}#el_25PX73L1bAG{fill: #231F20;}#el_Hf3Px_PYog6{fill: #231F20;}#el_-U70CscI4yB{fill: #231F20;}#el_HpvMlkXIn8h{fill: #231F20;}#el_jeOb9zeWAvC{fill: #231F20;}#el_0NPsIDEhw-L{fill: #231F20;}#el_qcP2ctxIQdm{fill: #231F20;}#el_8SgTYtvfNrE{fill: #231F20;}#el_YGD7zXRMXd_ZH3DBStnc{-webkit-animation-name: el_YGD7zXRMXd_ZH3DBStnc_Animation;animation-name: el_YGD7zXRMXd_ZH3DBStnc_Animation;-webkit-transform-origin: 50% 50%;transform-origin: 50% 50%;transform-box: fill-box;-webkit-transform: rotate(0deg);transform: rotate(0deg);-webkit-animation-timing-function: cubic-bezier(0.42, 0, 0.58, 1);animation-timing-function: cubic-bezier(0.42, 0, 0.58, 1);}#el_ojQhCuZVpL_g054edaMt{-webkit-animation-name: el_ojQhCuZVpL_g054edaMt_Animation;animation-name: el_ojQhCuZVpL_g054edaMt_Animation;-webkit-transform-origin: 50% 50%;transform-origin: 50% 50%;transform-box: fill-box;-webkit-transform: rotate(0deg);transform: rotate(0deg);-webkit-animation-timing-function: cubic-bezier(0.42, 0, 0.58, 1);animation-timing-function: cubic-bezier(0.42, 0, 0.58, 1);}#el_iFhWGmN8a6_aLTII4JVp{-webkit-animation-name: el_iFhWGmN8a6_aLTII4JVp_Animation;animation-name: el_iFhWGmN8a6_aLTII4JVp_Animation;-webkit-transform-origin: 50% 50%;transform-origin: 50% 50%;transform-box: fill-box;-webkit-transform: scale(1, 1);transform: scale(1, 1);-webkit-animation-timing-function: cubic-bezier(0.42, 0, 0.58, 1);animation-timing-function: cubic-bezier(0.42, 0, 0.58, 1);}</style>

<circle cx="86.5" cy="86.5" r="85" id="el_Iyv30omVdL"/>
<path d="M86.5,173C38.8,173,0,134.2,0,86.5S38.8,0,86.5,0S173,38.8,173,86.5S134.2,173,86.5,173z M86.5,3&#10;&#9;C40.5,3,3,40.5,3,86.5S40.5,170,86.5,170S170,132.5,170,86.5S132.5,3,86.5,3z" id="el_jGOC51I6bD"/>
<g id="el_ojQhCuZVpL_g054edaMt" data-animator-group="true" data-animator-type="1"><g id="el_ojQhCuZVpL">
	<g id="el_0n9w4Y0oYu">
		<circle cx="86.5" cy="86.5" r="44.7" id="el_sGFlaSVoIp"/>
		<path d="M86.5,132.7c-25.5,0-46.2-20.7-46.2-46.2C40.3,61,61,40.3,86.5,40.3c25.5,0,46.2,20.7,46.2,46.2&#10;&#9;&#9;&#9;C132.7,112,112,132.7,86.5,132.7z M86.5,43.3c-23.8,0-43.2,19.4-43.2,43.2c0,23.8,19.4,43.2,43.2,43.2c23.8,0,43.2-19.4,43.2-43.2&#10;&#9;&#9;&#9;C129.7,62.7,110.3,43.3,86.5,43.3z" id="el_nSsB2tvx4R"/>
	</g>
	<g id="el_cLnuew7m57">
		<ellipse cx="65.4" cy="48.5" rx="4.8" ry="4.6" id="el_WwLktfKgzQ"/>
	</g>
	<g id="el_aX7Op1j4mo">
		<ellipse cx="110.3" cy="125.6" rx="4.8" ry="4.6" id="el_Kydmzs4Dsq"/>
	</g>
</g></g>
<g id="el_YGD7zXRMXd_ZH3DBStnc" data-animator-group="true" data-animator-type="1"><g id="el_YGD7zXRMXd">
	<g id="el_3s09RXYTf7">
		<path d="M86.5,155.7c-38.2,0-69.2-31-69.2-69.2s31-69.2,69.2-69.2s69.2,31,69.2,69.2S124.7,155.7,86.5,155.7z&#10;&#9;&#9;&#9; M86.5,20.3C50,20.3,20.3,50,20.3,86.5s29.7,66.2,66.2,66.2s66.2-29.7,66.2-66.2S123,20.3,86.5,20.3z" id="el_Ioa-IS-ruL"/>
	</g>
	<g id="el_leiPTEGezg">
		<g id="el_iFhWGmN8a6_aLTII4JVp" data-animator-group="true" data-animator-type="2"><circle cx="86.5" cy="86.5" r="22.8" id="el_iFhWGmN8a6"/></g>
	</g>
	<g id="el_hIgybSH2svM">
		<circle cx="86.5" cy="18.5" r="4.8" id="el_zFqVc3-8r-1"/>
	</g>
	<g id="el_gRMNUJMGWqC">
		<circle cx="86.5" cy="154.5" r="4.8" id="el_H_X4IXxEo-r"/>
	</g>
	<g id="el_4_Iy7IEvpVm">
		<circle cx="52.5" cy="27.6" r="4.8" id="el_0zAgF9p1mP5"/>
	</g>
	<g id="el__nrtaXnkWHv">
		<circle cx="120.5" cy="145.4" r="4.8" id="el_6Str8JmYUN5"/>
	</g>
	<g id="el_O2xoF-dOjq9">
		<circle cx="27.6" cy="52.5" r="4.8" id="el_25PX73L1bAG"/>
	</g>
	<g id="el_43wL57SVwXJ">
		<circle cx="145.4" cy="120.5" r="4.8" id="el_Hf3Px_PYog6"/>
	</g>
	<g id="el_08nYcrEqF2R">
		<g id="el_wcKVop0xm9V">
			<circle cx="18.5" cy="86.5" r="4.8" id="el_-U70CscI4yB"/>
		</g>
		<g id="el_3fsCh3IAb_g">
			<circle cx="154.5" cy="86.5" r="4.8" id="el_HpvMlkXIn8h"/>
		</g>
	</g>
	<g id="el_svoGes2C78j">
		<g id="el_fOcIBhuK0tN">
			<circle cx="27.6" cy="120.5" r="4.8" id="el_jeOb9zeWAvC"/>
		</g>
		<g id="el_weMQU5FCkFY">
			<circle cx="145.4" cy="52.5" r="4.8" id="el_0NPsIDEhw-L"/>
		</g>
	</g>
	<g id="el_KJ68CZ3Iaqr">
		<g id="el_eiEyQJ7xjsH">
			<circle cx="52.5" cy="145.4" r="4.8" id="el_qcP2ctxIQdm"/>
		</g>
		<g id="el_HPjZA2YNAgO">
			<circle cx="120.5" cy="27.6" r="4.8" id="el_8SgTYtvfNrE"/>
		</g>
	</g>
</g></g>
<script>(function(){var a=document.querySelector('#el_Mc4wgYD1m'),b=a.querySelectorAll('style'),c=function(d){b.forEach(function(f){var g=f.textContent;g&amp;&amp;(f.textContent=g.replace(/transform-box:[^;\r\n]*/gi,'transform-box: '+d))})};c('initial'),window.requestAnimationFrame(function(){return c('fill-box')})})();</script></svg>