<svg id="Layer_1" xmlns="http://www.w3.org/2000/svg" viewBox="0 0 173.9 173.9"><style>.st0,.st1{fill:#fff;stroke:#231f20;stroke-width:3;stroke-linecap:round;stroke-linejoin:round;stroke-miterlimit:10}.st1{fill:none}</style><circle class="st0" cx="87" cy="87" r="85.5"/><circle class="st1" cx="86.5" cy="86.5" r="22.8"/><path class="st1" d="M86.5 11.2l.4 45m-12-15l4 14m-25.2-1.8l10.4 10.1M41.3 74.6l14.1 3.5M41.2 99l14-4m-1.8 25.3l10.1-10.5m11.1 22.8l3.5-14.1M99 132.7l-4-14m25.3 1.9l-10.5-10.2m22.8-11l-14.1-3.5m14.2-21l-14 4m1.9-25.2l-10.2 10.4m-11-22.8l-3.5 14.1m-48-35.2l23.8 39.9M20.9 48.2L60.5 71M7.9 86.2l48.3-.1m-37.3 39.1l41.2-23.9m-12.2 50.9L71 112.5m15.9 50.7l-.8-46.4m39.8 37.4l-24.6-41.3m52.6 12.3L112.5 102m53.4-15.8l-49.1.7m37.1-39.7l-41 24.5m13-53.5L102 60.5"/></svg>