<svg xmlns="http://www.w3.org/2000/svg" viewBox="0 0 173 173">
  <defs>
    <style>
      .a, .c {
        fill: #fff;
      }

      .a, .b, .c {
        stroke: #6d6e70;
        stroke-width: 3px;
      }

      .a {
        stroke-miterlimit: 10;
      }

      .b {
        fill: none;
      }

      .b, .c {
        stroke-linecap: round;
        stroke-linejoin: round;
      }
    </style>
  </defs>
  <title>Priori_Web_Icon_Morning</title>
  <g>
    <circle class="a" cx="86.5" cy="86.5" r="85"/>
    <path class="b" d="M36.19,38.52a33.56,33.56,0,0,0-2.62,3.88Q32,45,30.54,48a58.28,58.28,0,0,0-2.49,5.9,15,15,0,0,0-1,4.8,9.18,9.18,0,0,0,12.74,8.45,9.11,9.11,0,0,0,4.88-4.88,9,9,0,0,0,.72-3.57,14.92,14.92,0,0,0-1-4.81A57.87,57.87,0,0,0,41.8,48c-1-2-2-3.86-3-5.59A35,35,0,0,0,36.19,38.52Z"/>
    <line class="b" x1="3.65" y1="100.37" x2="169.88" y2="100.37"/>
    <line class="b" x1="70.81" y1="100.37" x2="128.64" y2="100.37"/>
    <polyline class="b" points="24.12 100.37 56.42 100.37 62.35 100.37"/>
    <polyline class="b" points="24.12 100.37 56.42 100.37 62.35 100.37"/>
    <line class="b" x1="3.65" y1="100.37" x2="19.18" y2="100.37"/>
    <line class="b" x1="31.17" y1="114.24" x2="6.61" y2="114.24"/>
    <polyline class="b" points="93.38 114.24 55.44 114.24 41.19 114.24"/>
    <line class="b" x1="142.32" y1="114.24" x2="104.38" y2="114.24"/>
    <line class="b" x1="165.13" y1="114.24" x2="151.63" y2="114.24"/>
    <line class="b" x1="54.73" y1="128.11" x2="12.59" y2="128.11"/>
    <line class="b" x1="115.52" y1="128.11" x2="65.03" y2="128.11"/>
    <line class="b" x1="158.72" y1="128.11" x2="131.88" y2="128.11"/>
    <line class="b" x1="94.65" y1="141.98" x2="150.89" y2="141.98"/>
    <line class="b" x1="54.87" y1="141.98" x2="82.8" y2="141.98"/>
    <line class="b" x1="22.61" y1="141.98" x2="45.49" y2="141.98"/>
    <line class="b" x1="65.73" y1="155.85" x2="37.78" y2="155.85"/>
    <line class="b" x1="107.62" y1="155.85" x2="76.31" y2="155.85"/>
    <line class="b" x1="135.65" y1="155.85" x2="119.61" y2="155.85"/>
    <circle class="c" cx="110.06" cy="41.63" r="18.56"/>
    <path class="c" d="M111.16,30.62A9.9,9.9,0,0,1,119.38,35"/>
    <circle class="c" cx="66.54" cy="30.98" r="6"/>
    <circle class="c" cx="23.53" cy="97.02" r="6"/>
    <circle class="c" cx="86.5" cy="74.5" r="6"/>
    <line class="b" x1="60.35" y1="61.59" x2="60.35" y2="88.76"/>
    <line class="b" x1="54.35" y1="80.5" x2="60.35" y2="88.67"/>
    <line class="b" x1="66.35" y1="80.5" x2="60.35" y2="88.67"/>
    <line class="b" x1="147.88" y1="61.59" x2="147.88" y2="88.76"/>
    <line class="b" x1="141.87" y1="80.5" x2="147.88" y2="88.67"/>
    <line class="b" x1="153.88" y1="80.5" x2="147.88" y2="88.67"/>
    <path class="c" d="M118.46,76.47a35.2,35.2,0,0,0-2.59,3.84q-1.55,2.58-3,5.53a57.17,57.17,0,0,0-2.47,5.84,14.88,14.88,0,0,0-1,4.75,8.94,8.94,0,0,0,.71,3.53,9,9,0,0,0,4.84,4.83,9.11,9.11,0,0,0,7,0,9,9,0,0,0,2.89-1.94,9.15,9.15,0,0,0,2-2.89,8.93,8.93,0,0,0,.7-3.53,14.72,14.72,0,0,0-1-4.76A58.92,58.92,0,0,0,124,85.81q-1.44-3-3-5.52A35.42,35.42,0,0,0,118.46,76.47Z"/>
  </g>
</svg>
