<svg xmlns="http://www.w3.org/2000/svg" xmlns:xlink="http://www.w3.org/1999/xlink" viewBox="0 0 812.92 513.84"><defs><style>.cls-1,.cls-4{fill:none;}.cls-2{opacity:0.56;}.cls-3{clip-path:url(#clip-path);}.cls-4{stroke:#e5e5e5;stroke-miterlimit:10;stroke-width:1.78px;}</style><clipPath id="clip-path"><rect class="cls-1" x="312.36" y="168.31" width="609.62" height="420.38"/></clipPath></defs><title>stones</title><g id="Layer_2" data-name="Layer 2"><g id="Layer_1-2" data-name="Layer 1"><g class="cls-2"><g class="cls-3"><path class="cls-4" d="M281.09,271.48a50.66,50.66,0,0,0,16,36.38l51.76,49.08a50.1,50.1,0,0,0,30.89,13.64h.71c1.07,0,2.12,0,3.17.13A49.14,49.14,0,0,0,401,367.42a85.38,85.38,0,0,0,29.32-18.78c1.12-1.29,2.29-2.53,3.52-3.69,12.83-14.34,20.58-33.31,20.58-55.21a82.05,82.05,0,0,0-23.05-57.84l-5.2-4.93c-15.9-13.84-37.18-21.91-60.35-21.91h-.71c-34.95,0-65.25,18-79.39,46.63a44,44,0,0,0-3.92,12c-.11,2.47-.33,4.94-.66,7.39v.38"/><path class="cls-4" d="M145.19,66.32a42.34,42.34,0,0,0,2.69,14.78,24.86,24.86,0,0,0,5,8.08l.22.24.48.5a27.87,27.87,0,0,0,19.33,8.28l36.34.43a23.14,23.14,0,0,0,22-14.16,42,42,0,0,0,3.15-15.16l-.1-3.72c-.72-10.13-5.16-20.28-13.62-28.75-18.52-18.52-45.66-17.77-62.44-1l-.25.25a42.62,42.62,0,0,0-12.76,30.22"/><path class="cls-4" d="M347.22,396.61a19.85,19.85,0,0,0,6.25,14.26l20.28,19.23a19.55,19.55,0,0,0,20.43,4.11c.76-.29,1.51-.61,2.24-.95a25.28,25.28,0,0,1,5.15-3,31.76,31.76,0,0,0,13.55-26.5v-.2c-.13-1.41-.22-2.82-.28-4.23-2.06-16-15.2-27.31-31.27-28.63-1.05-.09-2.1-.13-3.17-.13h-.71c-13.51.15-25.2,7.18-30.68,18.28a17.39,17.39,0,0,0-1.79,7.75"/><path class="cls-4" d="M407.85,201.31a19.89,19.89,0,0,0,6.26,14.27l12,11.39,5.2,4.93,3.07,2.91a19.52,19.52,0,0,0,20.43,4.1,32,32,0,0,0,20.94-30.44,34,34,0,0,0-.92-7.91c-.32-1-.62-2-.88-3-4.65-13.45-17.76-22.27-32.92-22.27h-.28c-13.69,0-25.57,7.05-31.11,18.27a17.46,17.46,0,0,0-1.8,7.75"/><path class="cls-4" d="M282,165.87a55.11,55.11,0,0,0,2.47,16.36c4.3,13.9,17.92,22.8,32.47,22.8h49.38a34.5,34.5,0,0,0,31.18-19.57,59,59,0,0,0,5.82-25.32,55.91,55.91,0,0,0-12.65-35.34c-.52-.6-1-1.22-1.54-1.84s-1.18-1.32-1.8-2A56.75,56.75,0,0,0,347,102.87a24.83,24.83,0,0,1-3.45,0,63.28,63.28,0,0,0-41.07,17.75l-.36.34a63.31,63.31,0,0,0-19.6,37.06c-.06.57-.13,1.15-.21,1.72a56.67,56.67,0,0,0-.33,6.1"/><path class="cls-4" d="M191.9,127.5c0,.28,0,.56,0,.83l1.16,43.61a30.49,30.49,0,0,0,18,27.07c18.79,8.33,40.7,5.49,56.69-10.49a50.34,50.34,0,0,0,14.55-28.75c.08-.57.15-1.15.22-1.72a52.71,52.71,0,0,0,.28-5.33c0-14.05-5.81-28.18-16.75-39.12l-.31-.31a59.16,59.16,0,0,0-12.85-9.78l-.35-.16a30.57,30.57,0,0,1-3.41-1.78,50.7,50.7,0,0,0-37.88-2.44c-11.9,4-19.37,15.83-19.37,28.37"/><path class="cls-4" d="M652,225.9a55.16,55.16,0,0,0,2.47,16.36c4.3,13.89,17.92,22.79,32.47,22.79h49.38a34.47,34.47,0,0,0,31.18-19.57,59,59,0,0,0,5.82-25.31,55.94,55.94,0,0,0-12.65-35.35c-.52-.6-1-1.21-1.54-1.83s-1.18-1.32-1.8-2A56.71,56.71,0,0,0,717,162.9a24.83,24.83,0,0,1-3.45,0,63.38,63.38,0,0,0-41.07,17.75l-.36.34a63.34,63.34,0,0,0-19.6,37.06c0,.58-.13,1.15-.21,1.72a56.71,56.71,0,0,0-.33,6.11"/><path class="cls-4" d="M561.87,187.52c0,.28,0,.56,0,.84L563,232a30.48,30.48,0,0,0,18,27.07c18.79,8.33,40.7,5.5,56.69-10.48a50.36,50.36,0,0,0,14.55-28.76c.08-.57.15-1.14.22-1.72a52.71,52.71,0,0,0,.28-5.33c0-14.05-5.81-28.18-16.75-39.11l-.3-.31a59.45,59.45,0,0,0-12.85-9.79l-.36-.16a29,29,0,0,1-3.41-1.78,50.68,50.68,0,0,0-37.87-2.43c-11.91,4-19.38,15.83-19.38,28.36"/><path class="cls-4" d="M246.32,344.11c0,.27,0,.55,0,.83l1.16,43.6a30.61,30.61,0,0,0,5.11,16.17c.38.51.75,1,1.1,1.55a30.06,30.06,0,0,0,11.8,9.36,50.42,50.42,0,0,0,39.08,1.17c1.17-.56,2.35-1.07,3.54-1.55a52.37,52.37,0,0,0,14.06-10.11,50.13,50.13,0,0,0,15.05-35.8c0-14.05-5.81-28.18-16.74-39.12l-.31-.31c-15.11-15.11-36-20.43-54.49-14.16a27,27,0,0,0-8.45,4.69c-1.36,1.46-2.76,2.89-4.23,4.29a31.24,31.24,0,0,0-6.69,19.39"/><path class="cls-4" d="M214.36,408.49c0,.14,0,.27,0,.4l.13,5a79.38,79.38,0,0,1,.53,9.24c0,1.67-.05,3.33-.15,5l.05,1.74a14.65,14.65,0,0,0,8.66,13,25.27,25.27,0,0,0,9.31,2.18l3-.08a24.81,24.81,0,0,0,22.18-24.37,26.12,26.12,0,0,0-4.41-14.37c-.35-.53-.72-1-1.1-1.55a28.81,28.81,0,0,0-2.54-2.9l-.15-.15c-7.27-7.27-17.32-9.83-26.22-6.82a14.27,14.27,0,0,0-9.33,13.65"/><path class="cls-4" d="M320.63,78.61a24.77,24.77,0,0,0,22.93,24.29,24.83,24.83,0,0,0,3.45,0,27,27,0,0,0,16.91-8l.15-.15a26.52,26.52,0,0,0,8.05-18.66,23.62,23.62,0,0,0-1.24-7.56c-2-5.85-7.87-9.48-14.05-9.32l-21,.56a14.69,14.69,0,0,0-12.71,8,48.28,48.28,0,0,1-2.28,7.53,24.85,24.85,0,0,0-.23,3.33"/><path class="cls-4" d="M216.54,464a23.94,23.94,0,0,0,7.25,17.09c10.28,10.29,26,9.26,36-.81l.15-.15a27.3,27.3,0,0,0,7.47-13.32c.13-1.1.3-2.19.5-3.27q.09-1,.09-2.07a23.62,23.62,0,0,0-1.24-7.56c-2-5.85-7.87-9.48-14.05-9.32l-16.82.45-3,.08-1.13,0a14.68,14.68,0,0,0-13,8.67,25.08,25.08,0,0,0-2.2,10.18"/><path class="cls-4" d="M561,282.74a24,24,0,0,0,7.24,17.09c10.29,10.29,26,9.25,36-.82l.15-.15a27.36,27.36,0,0,0,7.46-13.32c.14-1.09.3-2.18.5-3.27q.09-1,.09-2.07a23.52,23.52,0,0,0-1.24-7.55c-2-5.86-7.87-9.49-14.05-9.33l-16.82.45-3,.08-1.13,0a14.68,14.68,0,0,0-13,8.67A25.12,25.12,0,0,0,561,282.74"/><path class="cls-4" d="M761.05,176.2a26,26,0,0,0,.29,3.88c.14.64.26,1.29.37,1.94,2.68,11.42,13.15,19.09,25.41,19.09h.21c10.28,0,19.2-5.29,23.36-13.72a13.12,13.12,0,0,0,1.34-5.82,14.75,14.75,0,0,0-2.91-8.68c-.43-.51-.86-1-1.27-1.52l-.51-.5-15.23-14.44a14.63,14.63,0,0,0-15.34-3.08c-.34.12-.67.26-1,.4a25.16,25.16,0,0,0-5.16,3,23.86,23.86,0,0,0-9.57,19.46"/><path class="cls-4" d="M106.58,268.42c0,20,7.42,40,23.09,56.56a84.44,84.44,0,0,0,27.21,19.31,79.63,79.63,0,0,1,7.86,3c29.53,9.48,63,1.44,87.49-21.8l.51-.49.27-.26c1.47-1.4,2.87-2.83,4.23-4.29,13.31-14.33,21.46-31.58,23.85-49.33.33-2.45.55-4.92.66-7.39.06-1.19.08-2.38.08-3.57a79.84,79.84,0,0,0-3.56-23.63c-6.21-20.08-25.89-32.93-46.9-32.93H160a50.39,50.39,0,0,0-17.33,3.08c-.89.39-1.78.75-2.7,1.08a49.55,49.55,0,0,0-25,24.11,85.33,85.33,0,0,0-8.41,36.58"/><path class="cls-4" d="M233.37,31.83c0,.28,0,.56,0,.84l.88,32.92.1,3.72.18,7a30.33,30.33,0,0,0,18,27.08l.35.16c18.71,8.13,40.45,5.23,56.33-10.65a51.44,51.44,0,0,0,11.62-17.58,48.28,48.28,0,0,0,2.28-7.53,50,50,0,0,0,1.15-10.69c0-14.05-5.81-28.18-16.74-39.12l-.31-.31c-15.11-15.11-36-20.43-54.49-14.16-11.9,4-19.38,15.83-19.38,28.36"/><path class="cls-4" d="M267,473.8a55.4,55.4,0,0,0,2.46,16.35c4.3,13.9,17.93,22.8,32.47,22.8h49.38a34.51,34.51,0,0,0,31.19-19.57,59,59,0,0,0,5.82-25.31,55.5,55.5,0,0,0-.82-9.53c-.12-.65-.24-1.29-.38-1.94a57.34,57.34,0,0,0-14.79-27.69c-17.55-18.51-42.56-22.42-64.22-13.67-1.19.48-2.37,1-3.54,1.55a66.41,66.41,0,0,0-17.08,11.78l-.35.34A63.71,63.71,0,0,0,268,463.49c-.2,1.09-.37,2.18-.5,3.28a57,57,0,0,0-.44,7"/><path class="cls-4" d="M.89,154.25a79.89,79.89,0,0,0,3.56,23.63c6.21,20.08,25.9,32.93,46.9,32.93h71.34A50.37,50.37,0,0,0,140,207.74c.92-.34,1.81-.7,2.7-1.09a49.45,49.45,0,0,0,25-24.1A85.16,85.16,0,0,0,176.14,146c0-19.81-7.26-39.61-22.61-56l-.48-.51-.22-.23c-34-35.65-87.3-33.48-122.33-.26l-.52.49C11,107.37.89,130.82.89,154.25"/><path class="cls-4" d="M39.78,431.43a79.82,79.82,0,0,0,3.56,23.62C49.56,475.12,69.24,488,90.25,488h71.33a49.87,49.87,0,0,0,45-28.27,86,86,0,0,0,8.25-31.59c.1-1.66.15-3.32.15-5a79.38,79.38,0,0,0-.53-9.24c-1.95-16.86-9.3-33.33-22.56-47.31a84.18,84.18,0,0,0-27.2-19.32,79.63,79.63,0,0,0-7.86-3c-29.53-9.48-63-1.44-87.49,21.8l-.52.49c-18.93,18-29.09,41.41-29.09,64.85"/><path class="cls-4" d="M454.13,280.84a51.47,51.47,0,0,0,47.13,50.43h7.47a56,56,0,0,0,35.37-16.6l.31-.31c10.93-10.94,16.74-24.89,16.74-38.78a48.89,48.89,0,0,0-2.58-15.71c-4.08-12-16.09-19.54-28.77-19.37l-1.06,0-43,1.14a30.49,30.49,0,0,0-27.08,18,52.25,52.25,0,0,0-4.56,21.17"/><path class="cls-4" d="M472.25,184.36a52.37,52.37,0,0,0,1.71,13.2c.26,1,.55,2,.88,3A57.47,57.47,0,0,0,489,223.47l.3.31c11.11,11.11,25.33,16.92,39.43,16.74l1.07,0a49.16,49.16,0,0,0,14-2.55c11.91-4,19.38-15.84,19.38-28.37,0-.28,0-.56,0-.84L562,165.14a30.48,30.48,0,0,0-18-27.07c-18.79-8.33-40.7-5.5-56.69,10.49a50.15,50.15,0,0,0-15.05,35.8"/></g></g></g></g></svg>