<svg xmlns="http://www.w3.org/2000/svg" viewBox="0 0 60 43.66"><defs><style>.cls-1{fill:#1a1a1a;}</style></defs><title>truck</title><g id="Layer_2" data-name="Layer 2"><g id="Layer_1-2" data-name="Layer 1"><path class="cls-1" d="M51.83,11,60,21.83V35.49H54.51A8.12,8.12,0,0,1,40.6,41.23a7.83,7.83,0,0,1-2.43-5.74H21.83a7.83,7.83,0,0,1-2.43,5.74,8,8,0,0,1-11.49,0,7.86,7.86,0,0,1-2.42-5.74H0v-30A5.25,5.25,0,0,1,1.66,1.66,5.25,5.25,0,0,1,5.49,0H43.66V11ZM13.66,39.57a3.88,3.88,0,0,0,2.94-1.21,4.18,4.18,0,0,0,0-5.74,3.88,3.88,0,0,0-2.94-1.22,3.88,3.88,0,0,0-2.94,1.22,4.16,4.16,0,0,0,0,5.74A3.88,3.88,0,0,0,13.66,39.57ZM50.43,15.06H43.66v6.77H55.79ZM46.34,39.57a3.88,3.88,0,0,0,2.94-1.21,4.16,4.16,0,0,0,0-5.74,4.15,4.15,0,0,0-5.88,0,4.18,4.18,0,0,0,0,5.74A3.88,3.88,0,0,0,46.34,39.57Z"/></g></g></svg>