<svg xmlns="http://www.w3.org/2000/svg" viewBox="0 0 1449.49 209.05"><defs><style>.cls-1{fill:#d1d3d4;opacity:0.09;}.cls-2{fill:#fff;opacity:0.57;}</style></defs><title>wave</title><g id="Layer_2" data-name="Layer 2"><g id="Adaptive_page" data-name="Adaptive page"><path class="cls-1" d="M1449.49,209.05l-4-203.16-9.65.83c-77.53-11-175.24-8.14-248.84,6.08-51.57,10-101.77,25.39-154.7,29.18-47.53,3.41-95.44-2.72-143.1-.61-117.11,5.17-223,59.21-339.82,67.17-92.72,6.32-183.92-16.8-274-34.93S87.88,42.4.8,67.82L.87,209.05Z"/><path class="cls-2" d="M1440.39,209.05l-1.07-84.68c.19,14.8-140.44-2.53-154-5.09-226.12-42.64-468.73-31-691.15,26.88-34.83,9.08-70.28,17-106.46,17-83.7.1-163-34.58-244.55-53.37S60,91.85,0,150.25l.37,58.8Z"/></g></g></svg>